Coordinates
version=1
nRows=8
nColumns=63
inDegrees=yes

Units are S.I. units (second, meters, Newtons, ...)
If the header above contains a line with 'inDegrees', this indicates whether rotational values are in degrees (yes) or radians (no).

endheader
time	pelvis_tilt	pelvis_list	pelvis_rotation	pelvis_tx	pelvis_ty	pelvis_tz	hip_flexion_r	hip_adduction_r	hip_rotation_r	knee_angle_r	knee_angle_r_beta	ankle_angle_r	subtalar_angle_r	mtp_angle_r	hip_flexion_l	hip_adduction_l	hip_rotation_l	knee_angle_l	knee_angle_l_beta	ankle_angle_l	subtalar_angle_l	mtp_angle_l	L5_S1_Flex_Ext	L5_S1_Lat_Bending	L5_S1_axial_rotation	L4_L5_Flex_Ext	L4_L5_Lat_Bending	L4_L5_axial_rotation	L3_L4_Flex_Ext	L3_L4_Lat_Bending	L3_L4_axial_rotation	L2_L3_Flex_Ext	L2_L3_Lat_Bending	L2_L3_axial_rotation	L1_L2_Flex_Ext	L1_L2_Lat_Bending	L1_L2_axial_rotation	L1_T12_Flex_Ext	L1_T12_Lat_Bending	L1_T12_axial_rotation	Abs_r3	Abs_r2	Abs_r1	Abs_t1	Abs_t2	neck_flexion	neck_bending	neck_rotation	arm_flex_r	arm_add_r	arm_rot_r	elbow_flex_r	pro_sup_r	wrist_flex_r	wrist_dev_r	arm_flex_l	arm_add_l	arm_rot_l	elbow_flex_l	pro_sup_l	wrist_flex_l	wrist_dev_l
0.000000	-3.817829	-3.902359	94.390812	0.181516	0.493004	1.015943	10.577286	-4.435197	-9.137566	17.192639	0.300068	40.083296	11.144109	0.000000	9.326653	4.217374	11.391787	14.122168	0.246478	27.494284	-15.901145	0.000000	-0.089501	-0.903377	1.009797	-0.166212	-1.201492	1.072909	-0.147040	-2.196472	1.072909	-0.102290	-2.196472	0.883572	-0.083110	-1.842167	0.820460	-0.051141	-1.399331	0.757348	-0.639294	-10.219185	5.616188	0.000000	0.000000	1.638196	7.972596	-14.674620	12.452824	-15.697650	23.205889	117.567787	88.186395	8.486309	12.038027	13.950108	-18.070938	28.328462	79.711779	77.778688	-12.893939	2.954333
0.016667	-3.782911	-3.851386	93.922792	0.182040	0.493413	1.015050	10.911535	-4.094137	-7.374298	17.708241	0.309067	39.824038	9.173302	0.000000	9.067820	4.147946	11.287066	13.691504	0.238962	28.249625	-15.668676	0.000000	-0.081249	-0.913555	0.913305	-0.150887	-1.215028	0.970387	-0.133484	-2.221217	0.970387	-0.092859	-2.221217	0.799142	-0.075448	-1.862921	0.742060	-0.046426	-1.415096	0.684979	-0.580352	-10.334312	5.079528	0.000000	0.000000	0.549961	7.944861	-14.212656	15.213815	-15.029342	23.068483	122.163241	86.829123	8.567804	14.079822	12.597620	-18.360465	26.291342	79.740490	80.328200	-10.924286	4.639749
0.033333	-3.685683	-3.842961	93.574390	0.182228	0.493760	1.014293	11.217098	-3.761749	-5.961327	18.127481	0.316384	39.601825	7.555269	0.000000	8.901173	4.041809	11.213324	13.358035	0.233142	28.880376	-15.469937	0.000000	-0.072332	-0.911075	0.794528	-0.134327	-1.211730	0.844186	-0.118834	-2.215188	0.844186	-0.082668	-2.215188	0.695212	-0.067167	-1.857865	0.645554	-0.041330	-1.411256	0.595896	-0.516658	-10.306265	4.418928	0.000000	0.000000	-0.324095	7.908279	-13.640385	17.724825	-14.573998	23.340202	126.422330	86.064548	8.661797	15.424216	11.144830	-18.499318	24.252106	80.873761	82.053203	-9.434915	6.196688
0.050000	-3.536668	-3.871881	93.334896	0.182123	0.494047	1.013664	11.495101	-3.441651	-4.866899	18.459772	0.322184	39.414554	6.258356	0.000000	8.817167	3.906280	11.168859	13.112778	0.228861	29.397433	-15.302717	0.000000	-0.062986	-0.897886	0.658782	-0.116972	-1.194188	0.699956	-0.103480	-2.183119	0.699956	-0.071987	-2.183119	0.576434	-0.058489	-1.830968	0.535260	-0.035990	-1.390825	0.494086	-0.449906	-10.157062	3.663948	0.000000	0.000000	-1.000230	7.860560	-12.979773	19.978920	-14.308806	23.959112	130.326300	85.803772	8.773331	16.148911	9.639899	-18.506904	22.238598	82.978184	83.058744	-8.380546	7.618687
0.066667	-3.346388	-3.932944	93.193600	0.181773	0.494277	1.013156	11.746671	-3.137461	-4.059261	18.714526	0.326630	39.260124	5.250911	0.000000	8.806257	3.748676	11.151973	12.946749	0.225963	29.811696	-15.164810	0.000000	-0.053451	-0.875932	0.511381	-0.099263	-1.164990	0.543343	-0.087814	-2.129742	0.543343	-0.061089	-2.129742	0.447459	-0.049634	-1.786201	0.415497	-0.030542	-1.356819	0.383536	-0.381792	-9.908720	2.844149	0.000000	0.000000	-1.494702	7.799412	-12.252783	21.969165	-14.210956	24.863280	133.856396	85.957897	8.907447	16.331611	8.130984	-18.402634	20.278665	85.920347	83.449865	-7.715904	8.899285
0.083333	-3.125366	-4.020949	93.139791	0.181224	0.494453	1.012760	11.972934	-2.852796	-3.506658	18.901156	0.329887	39.136432	4.501282	0.000000	8.858897	3.576314	11.160963	12.850967	0.224292	30.134064	-15.054005	0.000000	-0.043961	-0.847161	0.357642	-0.081641	-1.126725	0.379994	-0.072224	-2.059788	0.379994	-0.050244	-2.059788	0.312936	-0.040823	-1.727531	0.290584	-0.025120	-1.312253	0.268231	-0.314012	-9.583258	1.989095	0.000000	0.000000	-1.823767	7.722546	-11.481380	23.688626	-14.257636	25.990772	136.993863	86.438023	9.069186	16.050019	6.666246	-18.205914	18.400152	89.566844	83.331612	-7.395710	10.032018
0.100000	-2.884125	-4.130691	93.162759	0.180521	0.494577	1.012469	12.175016	-2.591275	-3.177337	19.029076	0.332120	39.041375	3.977816	0.000000	8.965542	3.396510	11.194131	12.816448	0.223689	30.375436	-14.968095	0.000000	-0.034756	-0.813519	0.202878	-0.064546	-1.081981	0.215558	-0.057101	-1.977991	0.215558	-0.039723	-1.977991	0.177518	-0.032275	-1.658929	0.164838	-0.019860	-1.260141	0.152158	-0.248261	-9.202693	1.128346	0.000000	0.000000	-2.003683	7.627673	-10.687529	25.130367	-14.426037	27.279654	139.719945	87.155253	9.263590	15.381838	5.293844	-17.936155	16.630904	93.784263	82.809028	-7.374688	11.010424
0.116667	-2.633186	-4.256970	93.251792	0.179711	0.494652	1.012275	12.354043	-2.356515	-3.039542	19.107699	0.333492	38.972852	3.648860	0.000000	9.116647	3.216582	11.249776	12.834210	0.223999	30.546710	-14.904869	0.000000	-0.026073	-0.776953	0.052406	-0.048420	-1.033347	0.055681	-0.042835	-1.889083	0.055681	-0.029798	-1.889083	0.045855	-0.024211	-1.584362	0.042580	-0.014898	-1.203500	0.039304	-0.186235	-8.789043	0.291464	0.000000	0.000000	-2.050708	7.512501	-9.893194	26.287453	-14.693347	28.667994	142.015889	88.020687	9.495699	14.404771	4.061939	-17.612763	14.998766	98.439197	81.987158	-7.607561	11.828042
